<svg id="Ebene_1" data-name="Ebene 1" xmlns="http://www.w3.org/2000/svg" viewBox="0 0 841.89 203.25"><defs><style>.cls-1{fill:#4489a0;}.cls-2{fill:#1d1d1b;}.cls-3{fill:none;}.cls-4{fill:#4589a0;}</style></defs><path class="cls-1" d="M16.72,318.22S-1.19,301.2.06,268l62.9.4s0,42.57,20.41,49.86C83.37,318.22,16.31,317.82,16.72,318.22Z" transform="translate(0 -114.97)"/><path class="cls-1" d="M222,317.82s17.91-17,16.66-50.27l-62.9.41s0,42.56-20.41,49.86C155.38,317.82,222.44,317.41,222,317.82Z" transform="translate(0 -114.97)"/><path class="cls-1" d="M16.72,116.23S-1.19,133.26.06,166.5l62.9-.41s0-42.56,20.41-49.86C83.37,116.23,16.31,116.64,16.72,116.23Z" transform="translate(0 -114.97)"/><path class="cls-1" d="M222,116.64s17.91,17,16.66,50.26l-62.9-.4s0-42.57-20.41-49.86C155.38,116.64,222.44,117,222,116.64Z" transform="translate(0 -114.97)"/><circle class="cls-1" cx="119.47" cy="103.46" r="27.91"/><polygon class="cls-2" points="261.79 91.48 280.28 91.48 280.28 36.58 303.3 70.11 326.14 36.58 326.14 91.48 347.6 91.48 347.6 0 326.61 0 303.3 39.7 280.37 0 261.79 0 261.79 91.48"/><path class="cls-2" d="M417.57,115H393.68L362.8,206.45h18.39l6.13-21.12h33.21l6.57,21.12h21.15Zm-25,58,12.29-40.11L417.13,173Z" transform="translate(0 -114.97)"/><path class="cls-2" d="M404,132.84" transform="translate(0 -114.97)"/><path class="cls-3" d="M381.19,206.45" transform="translate(0 -114.97)"/><path class="cls-2" d="M509.4,173s18-1.32,18-28.06S502,115,502,115H457.46v91.48h18.19V176h17.53l14.47,30.44h23Zm-6.13-11.13H475.7l.06-28.54h27.18a17.27,17.27,0,0,1,6.57,15.12C509,157.59,503.27,161.82,503.27,161.82Z" transform="translate(0 -114.97)"/><path class="cls-4" d="M661.91,282.79s18-1.31,18-28.05-25.42-29.92-25.42-29.92H610V316.3h18.19V285.86h17.53l14.47,30.44h23Zm-6.14-11.12H628.21l.06-28.55h27.18A17.3,17.3,0,0,1,662,258.25C661.48,267.44,655.77,271.67,655.77,271.67Z" transform="translate(0 -114.97)"/><polygon class="cls-2" points="539.92 0 558.17 0 558.17 39.62 592.2 0 613.07 0 579.37 42.74 613.07 91.48 591.7 91.48 567.21 54.9 558.17 66.9 558.17 91.48 539.92 91.48 539.92 0"/><polygon class="cls-2" points="622.28 0 680.14 0 680.14 15.12 640.36 15.12 640.36 36.82 677.18 36.82 677.18 51.62 640.36 51.62 640.36 76.44 680.14 76.44 680.14 91.48 622.28 91.48 622.28 0"/><polygon class="cls-2" points="689.34 0 759.48 0 759.48 15.23 731.97 15.23 731.97 91.48 713.78 91.48 713.78 15.23 689.34 15.23 689.34 0"/><polygon class="cls-4" points="530.66 109.85 600.8 109.85 600.8 125.08 573.29 125.08 573.29 201.33 555.1 201.33 555.1 125.08 530.66 125.08 530.66 109.85"/><path class="cls-4" d="M385.4,225c-22.42,0-40.6,20.42-40.6,45.61s18.18,45.62,40.6,45.62S426,295.75,426,270.56,407.83,225,385.4,225Zm0,79.72c-12.71,0-23-15.27-23-34.11s10.3-34.11,23-34.11,23,15.27,23,34.11S398.11,304.67,385.4,304.67Z" transform="translate(0 -114.97)"/><path class="cls-4" d="M730,225c-22.43,0-40.61,20.42-40.61,45.61s18.18,45.62,40.61,45.62,40.6-20.43,40.6-45.62S752.37,225,730,225Zm0,79.72c-12.71,0-23-15.27-23-34.11s10.31-34.11,23-34.11,23,15.27,23,34.11S742.66,304.67,730,304.67Z" transform="translate(0 -114.97)"/><path class="cls-4" d="M316.64,288.72c-1.1,10.36-10.29,14.42-17.78,14.42-11.61,0-21-13.74-21-32.58s9.4-32.08,21-32.08c8.23,0,15.36,5.67,18.8,16.88h16.15C328.72,237.64,315,225,298.86,225c-20.47,0-37.07,20.42-37.07,45.61s16.7,44.68,37.07,46.71c17,1.7,32.79-11.78,34-28.55Z" transform="translate(0 -114.97)"/><polygon class="cls-4" points="442.12 201.2 442.12 110.35 469.07 110.35 502.94 180 502.94 110.35 520.69 110.35 520.69 201.33 494.06 201.2 459.92 133.63 458.88 201.2 442.12 201.2"/><polygon class="cls-4" points="786.9 109.97 805.32 109.97 805.32 186.16 841.89 186.16 841.89 201.31 786.9 201.31 786.9 109.97"/><path class="cls-4" d="M-157.65-13.63" transform="translate(0 -114.97)"/></svg>