<svg
	width="455"
	height="138"
	viewBox="0 0 455 138"
	fill="none"
	xmlns="http://www.w3.org/2000/svg"
>
	<path
		d="M63.31 103.25C67.63 100.82 69.25 96.23 69.25 89.12C69.25 78.86 64.66 74 52.06 74H36.67C35.86 74 35.41 74.54 35.41 75.35V135.74C35.41 136.55 35.86 137 36.67 137H52.33C65.92 137 71.14 132.59 71.14 119.09C71.14 110.72 68.98 105.95 63.31 103.7C63.13 103.61 63.13 103.43 63.31 103.25ZM46.57 83H51.61C56.74 83 58.99 84.89 58.99 91.46C58.99 97.94 56.65 99.83 51.52 99.83H46.57C46.39 99.83 46.21 99.74 46.21 99.47V83.27C46.21 83.09 46.39 83 46.57 83ZM52.51 127.46H46.57C46.39 127.46 46.21 127.28 46.21 127.1V109.1C46.21 108.83 46.39 108.74 46.57 108.74L52.24 108.65C58.27 108.65 60.61 111.08 60.61 118.01C60.61 124.94 58.18 127.46 52.51 127.46ZM75.4523 137H83.6423C84.3623 137 84.9023 136.55 84.9923 135.83C85.3523 132.68 86.1623 127.82 87.1523 122.42C87.1523 122.24 87.2423 122.15 87.4223 122.15H99.5723C99.7523 122.15 99.9323 122.24 99.9323 122.42C100.922 127.82 101.642 132.68 102.092 135.83C102.092 136.55 102.632 137 103.352 137H111.632C112.442 137 112.982 136.46 112.892 135.65C111.362 124.49 105.422 92.18 101.732 74.99C101.552 74.45 101.102 74.09 100.472 74.09H86.7023C86.0723 74.09 85.6223 74.45 85.5323 75.08C81.8423 92.36 75.7223 124.58 74.1023 135.65C74.0123 136.46 74.5523 137.09 75.4523 137.09V137ZM88.7723 112.52C88.5923 112.52 88.4123 112.34 88.5023 112.07C90.2123 102.8 92.1923 92.45 93.3623 85.79C93.4523 85.7 93.8123 85.7 93.8123 85.79C94.9823 92.45 96.9623 102.8 98.6723 112.07C98.6723 112.34 98.5823 112.52 98.3123 112.52H88.7723ZM120.254 137H145.094C145.904 137 146.354 136.64 146.354 135.74V128.72C146.354 127.91 145.904 127.46 145.094 127.46H130.154C129.974 127.46 129.794 127.37 129.794 127.1V75.35C129.794 74.45 129.434 74.09 128.534 74.09H120.254C119.444 74.09 118.994 74.45 118.994 75.35V135.74C118.994 136.64 119.444 137.09 120.254 137.09V137ZM154.092 137H178.932C179.742 137 180.192 136.64 180.192 135.74V128.72C180.192 127.91 179.742 127.46 178.932 127.46H163.992C163.812 127.46 163.632 127.37 163.632 127.1V75.35C163.632 74.45 163.272 74.09 162.372 74.09H154.092C153.282 74.09 152.832 74.45 152.832 75.35V135.74C152.832 136.64 153.282 137.09 154.092 137.09V137ZM197.47 127.1V109.91C197.47 109.73 197.65 109.55 197.83 109.55H213.22C214.03 109.55 214.48 109.1 214.48 108.29V101.27C214.48 100.46 214.03 100.01 213.22 100.01H197.83C197.65 100.01 197.47 99.92 197.47 99.74V83.99C197.47 83.72 197.65 83.63 197.83 83.63H214.57C215.38 83.63 215.83 83.18 215.83 82.37V75.35C215.83 74.45 215.38 74.09 214.57 74.09H187.93C187.12 74.09 186.67 74.45 186.67 75.35V135.74C186.67 136.64 187.12 137.09 187.93 137.09H215.56C216.37 137.09 216.82 136.64 216.82 135.74V128.72C216.82 127.91 216.37 127.46 215.56 127.46H197.83C197.65 127.46 197.47 127.37 197.47 127.1ZM235.717 137.9C246.157 137.9 253.267 133.4 253.267 121.61C253.267 114.77 249.757 110.36 243.187 103.97C234.997 95.87 233.737 93.35 233.737 88.76C233.737 84.08 237.787 82.55 241.657 82.55C243.727 82.55 245.797 83 247.777 83.63C248.587 83.81 249.127 83.36 249.217 82.55L249.847 75.98C249.937 75.17 249.667 74.72 248.857 74.54C246.067 73.82 242.917 73.19 239.317 73.19C229.057 73.01 222.667 77.42 222.577 87.77C222.487 96.23 225.727 101 233.377 108.56C239.767 114.86 241.927 117.47 241.927 121.43C241.927 126.2 237.877 128.18 232.567 128.18C229.327 128.18 226.447 127.37 224.557 126.83C223.747 126.56 223.207 127.01 223.117 127.82L222.397 134.66C222.217 135.47 222.577 136.01 223.297 136.19C226.447 137 231.127 137.9 235.717 137.9ZM285.408 74H255.888C254.988 74 254.538 74.45 254.538 75.35V82.37C254.538 83.18 254.988 83.63 255.888 83.63H264.888C265.067 83.63 265.248 83.81 265.248 83.99V135.74C265.248 136.64 265.698 137 266.508 137H274.788C275.598 137 276.048 136.64 276.048 135.74V83.99C276.048 83.81 276.138 83.63 276.317 83.63H285.408C286.218 83.63 286.668 83.18 286.668 82.37V75.35C286.668 74.45 286.218 74 285.408 74ZM303.29 127.1V109.91C303.29 109.73 303.47 109.55 303.65 109.55H319.04C319.85 109.55 320.3 109.1 320.3 108.29V101.27C320.3 100.46 319.85 100.01 319.04 100.01H303.65C303.47 100.01 303.29 99.92 303.29 99.74V83.99C303.29 83.72 303.47 83.63 303.65 83.63H320.39C321.2 83.63 321.65 83.18 321.65 82.37V75.35C321.65 74.45 321.2 74.09 320.39 74.09H293.75C292.94 74.09 292.49 74.45 292.49 75.35V135.74C292.49 136.64 292.94 137.09 293.75 137.09H321.38C322.19 137.09 322.64 136.64 322.64 135.74V128.72C322.64 127.91 322.19 127.46 321.38 127.46H303.65C303.47 127.46 303.29 127.37 303.29 127.1ZM364.577 135.56L355.487 114.5C355.307 114.14 355.487 113.87 355.847 113.69C362.237 111.44 364.487 105.68 364.487 94.79C364.487 78.32 360.077 74.09 344.507 74.09H331.367C330.557 74.09 330.107 74.45 330.107 75.35V135.74C330.107 136.64 330.557 137 331.367 137H339.647C340.547 137 340.907 136.64 340.907 135.74V115.58C340.907 115.4 341.087 115.22 341.267 115.22C344.057 115.22 345.047 115.22 345.767 115.22C345.947 115.22 346.037 115.31 346.127 115.49L353.957 136.01C354.227 136.73 354.677 137 355.397 137H363.587C364.577 137 364.937 136.46 364.577 135.56ZM341.267 105.86C341.087 105.86 340.907 105.68 340.907 105.5V83.81C340.907 83.63 341.087 83.45 341.267 83.45H344.597C351.527 83.45 353.687 85.61 353.687 94.79C353.687 103.52 351.257 105.86 344.597 105.86H341.267ZM389.41 137.9C394.99 137.9 399.22 136.64 402.1 133.85C407.23 129.08 408.49 120.08 408.49 105.59C408.49 92.27 407.23 83.45 403.09 78.5C400.21 74.99 395.8 73.37 389.68 73.37C383.47 73.37 379.06 74.81 376.09 78.14C371.68 83.09 370.42 91.91 370.42 105.59C370.42 119.81 371.68 128.9 376.54 133.67C379.51 136.64 383.65 137.99 389.41 137.99V137.9ZM389.5 128.27C385.54 128.27 383.83 126.2 383.02 122.24C381.67 117.92 381.22 113.33 381.22 105.68C381.22 98.12 381.67 93.35 383.02 89.03C383.83 85.16 385.45 83.09 389.5 83.09C393.46 83.09 395.08 85.16 395.89 89.03C397.24 93.35 397.78 98.12 397.78 105.68C397.78 113.42 397.24 118.01 395.89 122.24C395.08 126.11 393.46 128.18 389.5 128.18V128.27ZM425.912 137.9C436.352 137.9 443.462 133.4 443.462 121.61C443.462 114.77 439.952 110.36 433.382 103.97C425.192 95.87 423.932 93.35 423.932 88.76C423.932 84.08 427.982 82.55 431.852 82.55C433.922 82.55 435.992 83 437.972 83.63C438.782 83.81 439.322 83.36 439.412 82.55L440.042 75.98C440.132 75.17 439.862 74.72 439.052 74.54C436.262 73.82 433.112 73.19 429.512 73.19C419.252 73.01 412.862 77.42 412.772 87.77C412.682 96.23 415.922 101 423.572 108.56C429.962 114.86 432.122 117.47 432.122 121.43C432.122 126.2 428.072 128.18 422.762 128.18C419.522 128.18 416.642 127.37 414.752 126.83C413.942 126.56 413.402 127.01 413.312 127.82L412.592 134.66C412.412 135.47 412.772 136.01 413.492 136.19C416.642 137 421.322 137.9 425.912 137.9Z"
		fill="#111827"
	/>
	<path d="M-1 1H308V64H-1V1Z" fill="#F2F3F5" fill-opacity="0.5" />
	<path
		d="M36.7609 64H44.9509C45.6709 64 46.2109 63.55 46.3009 62.83C46.6609 59.68 47.4709 54.82 48.4609 49.42C48.4609 49.24 48.5509 49.15 48.7309 49.15H60.8809C61.0609 49.15 61.2409 49.24 61.2409 49.42C62.2309 54.82 62.9509 59.68 63.4009 62.83C63.4009 63.55 63.9409 64 64.6609 64H72.9409C73.7509 64 74.2909 63.46 74.2009 62.65C72.6709 51.49 66.7309 19.18 63.0409 1.99C62.8609 1.45 62.4109 1.08999 61.7809 1.08999H48.0109C47.3809 1.08999 46.9309 1.45 46.8409 2.08C43.1509 19.36 37.0309 51.58 35.4109 62.65C35.3209 63.46 35.8609 64.09 36.7609 64.09V64ZM50.0809 39.52C49.9009 39.52 49.7209 39.34 49.8109 39.07C51.5209 29.8 53.5009 19.45 54.6709 12.79C54.7609 12.7 55.1209 12.7 55.1209 12.79C56.2909 19.45 58.2709 29.8 59.9809 39.07C59.9809 39.34 59.8909 39.52 59.6209 39.52H50.0809ZM81.5626 64H106.403C107.213 64 107.663 63.64 107.663 62.74V55.72C107.663 54.91 107.213 54.46 106.403 54.46H91.4626C91.2826 54.46 91.1026 54.37 91.1026 54.1V2.34999C91.1026 1.45 90.7426 1.08999 89.8426 1.08999H81.5626C80.7526 1.08999 80.3026 1.45 80.3026 2.34999V62.74C80.3026 63.64 80.7526 64.09 81.5626 64.09V64ZM142.04 30.25C146.36 27.82 147.98 23.23 147.98 16.12C147.98 5.86 143.39 0.999996 130.79 0.999996H115.4C114.59 0.999996 114.14 1.54 114.14 2.34999V62.74C114.14 63.55 114.59 64 115.4 64H131.06C144.65 64 149.87 59.59 149.87 46.09C149.87 37.72 147.71 32.95 142.04 30.7C141.86 30.61 141.86 30.43 142.04 30.25ZM125.3 10H130.34C135.47 10 137.72 11.89 137.72 18.46C137.72 24.94 135.38 26.83 130.25 26.83H125.3C125.12 26.83 124.94 26.74 124.94 26.47V10.27C124.94 10.09 125.12 10 125.3 10ZM131.24 54.46H125.3C125.12 54.46 124.94 54.28 124.94 54.1V36.1C124.94 35.83 125.12 35.74 125.3 35.74L130.97 35.65C137 35.65 139.34 38.08 139.34 45.01C139.34 51.94 136.91 54.46 131.24 54.46ZM167.919 54.1V36.91C167.919 36.73 168.099 36.55 168.279 36.55H183.669C184.479 36.55 184.929 36.1 184.929 35.29V28.27C184.929 27.46 184.479 27.01 183.669 27.01H168.279C168.099 27.01 167.919 26.92 167.919 26.74V10.99C167.919 10.72 168.099 10.63 168.279 10.63H185.019C185.829 10.63 186.279 10.18 186.279 9.37V2.34999C186.279 1.45 185.829 1.08999 185.019 1.08999H158.379C157.569 1.08999 157.119 1.45 157.119 2.34999V62.74C157.119 63.64 157.569 64.09 158.379 64.09H186.009C186.819 64.09 187.269 63.64 187.269 62.74V55.72C187.269 54.91 186.819 54.46 186.009 54.46H168.279C168.099 54.46 167.919 54.37 167.919 54.1ZM229.206 62.56L220.116 41.5C219.936 41.14 220.116 40.87 220.476 40.69C226.866 38.44 229.116 32.68 229.116 21.79C229.116 5.32 224.706 1.08999 209.136 1.08999H195.996C195.186 1.08999 194.736 1.45 194.736 2.34999V62.74C194.736 63.64 195.186 64 195.996 64H204.276C205.176 64 205.536 63.64 205.536 62.74V42.58C205.536 42.4 205.716 42.22 205.896 42.22C208.686 42.22 209.676 42.22 210.396 42.22C210.576 42.22 210.666 42.31 210.756 42.49L218.586 63.01C218.856 63.73 219.306 64 220.026 64H228.216C229.206 64 229.566 63.46 229.206 62.56ZM205.896 32.86C205.716 32.86 205.536 32.68 205.536 32.5V10.81C205.536 10.63 205.716 10.45 205.896 10.45H209.226C216.156 10.45 218.316 12.61 218.316 21.79C218.316 30.52 215.886 32.86 209.226 32.86H205.896ZM264.118 0.999996H234.598C233.698 0.999996 233.248 1.45 233.248 2.34999V9.37C233.248 10.18 233.698 10.63 234.598 10.63H243.598C243.778 10.63 243.958 10.81 243.958 10.99V62.74C243.958 63.64 244.408 64 245.218 64H253.498C254.308 64 254.758 63.64 254.758 62.74V10.99C254.758 10.81 254.848 10.63 255.028 10.63H264.118C264.928 10.63 265.378 10.18 265.378 9.37V2.34999C265.378 1.45 264.928 0.999996 264.118 0.999996ZM287.701 64.9C293.281 64.9 297.511 63.64 300.391 60.85C305.521 56.08 306.781 47.08 306.781 32.59C306.781 19.27 305.521 10.45 301.381 5.5C298.501 1.99 294.091 0.369998 287.971 0.369998C281.761 0.369998 277.351 1.81 274.381 5.14C269.971 10.09 268.711 18.91 268.711 32.59C268.711 46.81 269.971 55.9 274.831 60.67C277.801 63.64 281.941 64.99 287.701 64.99V64.9ZM287.791 55.27C283.831 55.27 282.121 53.2 281.311 49.24C279.961 44.92 279.511 40.33 279.511 32.68C279.511 25.12 279.961 20.35 281.311 16.03C282.121 12.16 283.741 10.09 287.791 10.09C291.751 10.09 293.371 12.16 294.181 16.03C295.531 20.35 296.071 25.12 296.071 32.68C296.071 40.42 295.531 45.01 294.181 49.24C293.371 53.11 291.751 55.18 287.791 55.18V55.27Z"
		fill="#111827"
	/>
</svg>
